<?xml version="1.0" encoding="UTF-8" standalone="no"?>
<!DOCTYPE svg PUBLIC "-//W3C//DTD SVG 1.1//EN"
 "http://www.w3.org/Graphics/SVG/1.1/DTD/svg11.dtd">
<!-- Generated by graphviz version 2.40.1 (20161225.0304)
 -->
<!-- Title: G Pages: 1 -->
<svg width="1328pt" height="506pt"
 viewBox="0.00 0.00 1328.00 506.00" xmlns="http://www.w3.org/2000/svg" xmlns:xlink="http://www.w3.org/1999/xlink">
<g id="graph0" class="graph" transform="scale(1 1) rotate(0) translate(4 502)">
<title>G</title>
<polygon fill="#ffffff" stroke="transparent" points="-4,4 -4,-502 1324,-502 1324,4 -4,4"/>
<g id="clust1" class="cluster">
<title>cluster_0</title>
<polygon fill="#bbdefb" stroke="#bbdefb" points="328,-120 328,-381 798,-381 798,-120 328,-120"/>
<text text-anchor="middle" x="563" y="-365.8" font-family="Times,serif" font-size="14.00" fill="#000000">Cloud / server / VM</text>
</g>
<g id="clust2" class="cluster">
<title>cluster_1</title>
<polygon fill="#bbdefb" stroke="#bbdefb" points="86,-208 86,-286 320,-286 320,-208 86,-208"/>
<text text-anchor="middle" x="203" y="-270.8" font-family="Times,serif" font-size="14.00" fill="#000000">LoRa® Gateway</text>
</g>
<g id="clust3" class="cluster">
<title>cluster_2</title>
<polygon fill="#bbdefb" stroke="#bbdefb" points="364,-414 364,-490 526,-490 526,-414 364,-414"/>
<text text-anchor="middle" x="445" y="-474.8" font-family="Times,serif" font-size="14.00" fill="#000000">LoRa® Gateway</text>
</g>
<g id="clust4" class="cluster">
<title>cluster_3</title>
<polygon fill="#bbdefb" stroke="#bbdefb" points="8,-8 8,-101 1312,-101 1312,-8 8,-8"/>
<text text-anchor="middle" x="660" y="-85.8" font-family="Times,serif" font-size="14.00" fill="#000000">Integrations</text>
</g>
<!-- chirpstack&#45;network&#45;server -->
<g id="node1" class="node">
<title>chirpstack&#45;network&#45;server</title>
<polygon fill="#e3f2fd" stroke="#e3f2fd" points="572,-313.5 572,-349.5 790,-349.5 790,-313.5 572,-313.5"/>
<text text-anchor="middle" x="681" y="-327.8" font-family="Times,serif" font-size="14.00" fill="#000000">ChirpStack Network Server</text>
</g>
<!-- pub&#45;sub -->
<g id="node2" class="node">
<title>pub&#45;sub</title>
<polygon fill="#e3f2fd" stroke="#e3f2fd" points="380.5,-128.5 380.5,-164.5 509.5,-164.5 509.5,-128.5 380.5,-128.5"/>
<text text-anchor="middle" x="445" y="-142.8" font-family="Times,serif" font-size="14.00" fill="#000000">Pub/Sub broker</text>
</g>
<!-- chirpstack&#45;network&#45;server&#45;&gt;pub&#45;sub -->
<g id="edge1" class="edge">
<title>chirpstack&#45;network&#45;server&#45;&gt;pub&#45;sub</title>
<path fill="none" stroke="#000000" d="M650.0695,-307.2537C604.9161,-271.858 521.416,-206.4024 476.1428,-170.9128"/>
<polygon fill="#000000" stroke="#000000" points="647.9122,-310.0097 657.9416,-313.4246 652.2308,-304.5006 647.9122,-310.0097"/>
<polygon fill="#000000" stroke="#000000" points="478.1814,-168.0636 468.152,-164.6488 473.8628,-173.5727 478.1814,-168.0636"/>
</g>
<!-- chirpstack&#45;application&#45;server -->
<g id="node3" class="node">
<title>chirpstack&#45;application&#45;server</title>
<polygon fill="#e3f2fd" stroke="#e3f2fd" points="552.5,-128.5 552.5,-164.5 789.5,-164.5 789.5,-128.5 552.5,-128.5"/>
<text text-anchor="middle" x="671" y="-142.8" font-family="Times,serif" font-size="14.00" fill="#000000">ChirpStack Application Server</text>
</g>
<!-- chirpstack&#45;network&#45;server&#45;&gt;chirpstack&#45;application&#45;server -->
<g id="edge2" class="edge">
<title>chirpstack&#45;network&#45;server&#45;&gt;chirpstack&#45;application&#45;server</title>
<path fill="none" stroke="#000000" d="M679.482,-303.4163C677.5985,-268.5726 674.4059,-209.5099 672.5211,-174.6401"/>
<polygon fill="#000000" stroke="#000000" points="675.9882,-303.6281 680.023,-313.4246 682.978,-303.2502 675.9882,-303.6281"/>
<polygon fill="#000000" stroke="#000000" points="676.0158,-174.4453 671.981,-164.6488 669.026,-174.8232 676.0158,-174.4453"/>
<text text-anchor="middle" x="698.5" y="-231.8" font-family="Times,serif" font-size="14.00" fill="#000000">gRPC</text>
</g>
<!-- http&#45;int -->
<g id="node7" class="node">
<title>http&#45;int</title>
<polygon fill="#e3f2fd" stroke="#e3f2fd" points="16.5,-25 16.5,-61 75.5,-61 75.5,-25 16.5,-25"/>
<text text-anchor="middle" x="46" y="-39.3" font-family="Times,serif" font-size="14.00" fill="#000000">HTTP</text>
</g>
<!-- chirpstack&#45;application&#45;server&#45;&gt;http&#45;int -->
<g id="edge6" class="edge">
<title>chirpstack&#45;application&#45;server&#45;&gt;http&#45;int</title>
<path fill="none" stroke="#000000" d="M580.0635,-128.49C560.0233,-125.1248 538.8526,-122.0315 519,-120 470.9823,-115.0865 126.6838,-125.3373 85,-101 73.0107,-94 63.9481,-81.6717 57.5909,-70.1761"/>
<polygon fill="#000000" stroke="#000000" points="60.7112,-68.5905 53.0683,-61.2531 54.4673,-71.7552 60.7112,-68.5905"/>
</g>
<!-- mqtt&#45;int -->
<g id="node8" class="node">
<title>mqtt&#45;int</title>
<polygon fill="#e3f2fd" stroke="#e3f2fd" points="94,-25 94,-61 156,-61 156,-25 94,-25"/>
<text text-anchor="middle" x="125" y="-39.3" font-family="Times,serif" font-size="14.00" fill="#000000">MQTT</text>
</g>
<!-- chirpstack&#45;application&#45;server&#45;&gt;mqtt&#45;int -->
<g id="edge7" class="edge">
<title>chirpstack&#45;application&#45;server&#45;&gt;mqtt&#45;int</title>
<path fill="none" stroke="#000000" d="M578.8335,-128.4593C559.1544,-125.1613 538.4411,-122.1029 519,-120 479.8385,-115.764 199.1707,-120.5941 165,-101 152.7756,-93.9903 143.4531,-81.5439 136.8962,-69.9734"/>
<polygon fill="#000000" stroke="#000000" points="139.9489,-68.2578 132.228,-61.0026 133.7394,-71.4891 139.9489,-68.2578"/>
</g>
<!-- influxdb&#45;int -->
<g id="node9" class="node">
<title>influxdb&#45;int</title>
<polygon fill="#e3f2fd" stroke="#e3f2fd" points="174,-25 174,-61 254,-61 254,-25 174,-25"/>
<text text-anchor="middle" x="214" y="-39.3" font-family="Times,serif" font-size="14.00" fill="#000000">InfluxDB</text>
</g>
<!-- chirpstack&#45;application&#45;server&#45;&gt;influxdb&#45;int -->
<g id="edge11" class="edge">
<title>chirpstack&#45;application&#45;server&#45;&gt;influxdb&#45;int</title>
<path fill="none" stroke="#000000" d="M575.9423,-128.4501C557.1218,-125.2944 537.4751,-122.2932 519,-120 462.609,-113.0007 314.7429,-126.5752 264,-101 250.0524,-93.9702 238.376,-81.1772 229.8237,-69.3914"/>
<polygon fill="#000000" stroke="#000000" points="232.6854,-67.3755 224.1607,-61.0843 226.9015,-71.3185 232.6854,-67.3755"/>
</g>
<!-- postgresql&#45;int -->
<g id="node10" class="node">
<title>postgresql&#45;int</title>
<polygon fill="#e3f2fd" stroke="#e3f2fd" points="272.5,-25 272.5,-61 375.5,-61 375.5,-25 272.5,-25"/>
<text text-anchor="middle" x="324" y="-39.3" font-family="Times,serif" font-size="14.00" fill="#000000">PostgreSQL</text>
</g>
<!-- chirpstack&#45;application&#45;server&#45;&gt;postgresql&#45;int -->
<g id="edge13" class="edge">
<title>chirpstack&#45;application&#45;server&#45;&gt;postgresql&#45;int</title>
<path fill="none" stroke="#000000" d="M570.0992,-128.4463C553.0586,-125.53 535.5366,-122.6132 519,-120 459.586,-110.6111 439.1493,-127.192 385,-101 369.5016,-93.5034 355.349,-80.623 344.5858,-68.9018"/>
<polygon fill="#000000" stroke="#000000" points="346.9265,-66.2626 337.7011,-61.0527 341.664,-70.8785 346.9265,-66.2626"/>
</g>
<!-- amqp -->
<g id="node11" class="node">
<title>amqp</title>
<polygon fill="#e3f2fd" stroke="#e3f2fd" points="394,-25 394,-61 544,-61 544,-25 394,-25"/>
<text text-anchor="middle" x="469" y="-39.3" font-family="Times,serif" font-size="14.00" fill="#000000">AMQP / RabbitMQ</text>
</g>
<!-- chirpstack&#45;application&#45;server&#45;&gt;amqp -->
<g id="edge15" class="edge">
<title>chirpstack&#45;application&#45;server&#45;&gt;amqp</title>
<path fill="none" stroke="#000000" d="M616.3605,-128.4927C596.0017,-120.996 572.9946,-111.5666 553,-101 534.6238,-91.2887 515.4548,-78.3022 500.0762,-67.0798"/>
<polygon fill="#000000" stroke="#000000" points="502.0698,-64.2008 491.9517,-61.0585 497.9019,-69.8247 502.0698,-64.2008"/>
</g>
<!-- thigsboard -->
<g id="node12" class="node">
<title>thigsboard</title>
<polygon fill="#e3f2fd" stroke="#e3f2fd" points="562,-25 562,-61 670,-61 670,-25 562,-25"/>
<text text-anchor="middle" x="616" y="-39.3" font-family="Times,serif" font-size="14.00" fill="#000000">ThingsBoard</text>
</g>
<!-- chirpstack&#45;application&#45;server&#45;&gt;thigsboard -->
<g id="edge14" class="edge">
<title>chirpstack&#45;application&#45;server&#45;&gt;thigsboard</title>
<path fill="none" stroke="#000000" d="M661.4197,-128.4717C652.8757,-112.3934 640.2441,-88.623 630.4694,-70.2288"/>
<polygon fill="#000000" stroke="#000000" points="633.4384,-68.3572 625.655,-61.169 627.257,-71.642 633.4384,-68.3572"/>
</g>
<!-- gcp&#45;pubsub&#45;int -->
<g id="node13" class="node">
<title>gcp&#45;pubsub&#45;int</title>
<polygon fill="#e3f2fd" stroke="#e3f2fd" points="688.5,-24 688.5,-62 765.5,-62 765.5,-24 688.5,-24"/>
<text text-anchor="middle" x="727" y="-46.8" font-family="Times,serif" font-size="14.00" fill="#000000">GCP</text>
<text text-anchor="middle" x="727" y="-31.8" font-family="Times,serif" font-size="14.00" fill="#000000">Pub/Sub</text>
</g>
<!-- chirpstack&#45;application&#45;server&#45;&gt;gcp&#45;pubsub&#45;int -->
<g id="edge8" class="edge">
<title>chirpstack&#45;application&#45;server&#45;&gt;gcp&#45;pubsub&#45;int</title>
<path fill="none" stroke="#000000" d="M680.7545,-128.4717C689.2937,-112.6893 701.8431,-89.4954 711.7151,-71.2498"/>
<polygon fill="#000000" stroke="#000000" points="714.9176,-72.6857 716.5981,-62.225 708.761,-69.3546 714.9176,-72.6857"/>
</g>
<!-- aws&#45;sns&#45;int -->
<g id="node14" class="node">
<title>aws&#45;sns&#45;int</title>
<polygon fill="#e3f2fd" stroke="#e3f2fd" points="784,-24 784,-62 838,-62 838,-24 784,-24"/>
<text text-anchor="middle" x="811" y="-46.8" font-family="Times,serif" font-size="14.00" fill="#000000">AWS</text>
<text text-anchor="middle" x="811" y="-31.8" font-family="Times,serif" font-size="14.00" fill="#000000">SNS</text>
</g>
<!-- chirpstack&#45;application&#45;server&#45;&gt;aws&#45;sns&#45;int -->
<g id="edge9" class="edge">
<title>chirpstack&#45;application&#45;server&#45;&gt;aws&#45;sns&#45;int</title>
<path fill="none" stroke="#000000" d="M728.8348,-128.4512C744.9464,-121.5839 761.668,-112.5489 775,-101 784.4918,-92.7777 792.2936,-81.4253 798.1784,-70.9427"/>
<polygon fill="#000000" stroke="#000000" points="801.2954,-72.5352 802.8506,-62.0551 795.0994,-69.2779 801.2954,-72.5352"/>
</g>
<!-- azure&#45;service&#45;bus&#45;int -->
<g id="node15" class="node">
<title>azure&#45;service&#45;bus&#45;int</title>
<polygon fill="#e3f2fd" stroke="#e3f2fd" points="856,-24 856,-62 958,-62 958,-24 856,-24"/>
<text text-anchor="middle" x="907" y="-46.8" font-family="Times,serif" font-size="14.00" fill="#000000">Azure</text>
<text text-anchor="middle" x="907" y="-31.8" font-family="Times,serif" font-size="14.00" fill="#000000">Service&#45;Bus</text>
</g>
<!-- chirpstack&#45;application&#45;server&#45;&gt;azure&#45;service&#45;bus&#45;int -->
<g id="edge10" class="edge">
<title>chirpstack&#45;application&#45;server&#45;&gt;azure&#45;service&#45;bus&#45;int</title>
<path fill="none" stroke="#000000" d="M777.2538,-128.423C801.1135,-121.8426 825.662,-112.9557 847,-101 861.2744,-93.002 874.6316,-80.7727 885.1027,-69.602"/>
<polygon fill="#000000" stroke="#000000" points="887.7681,-71.8726 891.8667,-62.1026 882.57,-67.1843 887.7681,-71.8726"/>
</g>
<!-- loracloud -->
<g id="node16" class="node">
<title>loracloud</title>
<polygon fill="#e3f2fd" stroke="#e3f2fd" points="976,-25 976,-61 1076,-61 1076,-25 976,-25"/>
<text text-anchor="middle" x="1026" y="-39.3" font-family="Times,serif" font-size="14.00" fill="#000000">LoRa Cloud</text>
</g>
<!-- chirpstack&#45;application&#45;server&#45;&gt;loracloud -->
<g id="edge12" class="edge">
<title>chirpstack&#45;application&#45;server&#45;&gt;loracloud</title>
<path fill="none" stroke="#000000" d="M789.6994,-135.7267C857.9954,-128.0825 936.2075,-116.4363 967,-101 982.0234,-93.4688 995.6383,-80.7066 1005.994,-69.0681"/>
<polygon fill="#000000" stroke="#000000" points="1008.8131,-71.1556 1012.62,-61.2683 1003.4782,-66.6236 1008.8131,-71.1556"/>
</g>
<!-- pilot&#45;things -->
<g id="node17" class="node">
<title>pilot&#45;things</title>
<polygon fill="#e3f2fd" stroke="#e3f2fd" points="1094.5,-25 1094.5,-61 1197.5,-61 1197.5,-25 1094.5,-25"/>
<text text-anchor="middle" x="1146" y="-39.3" font-family="Times,serif" font-size="14.00" fill="#000000">Pilot Things</text>
</g>
<!-- chirpstack&#45;application&#45;server&#45;&gt;pilot&#45;things -->
<g id="edge16" class="edge">
<title>chirpstack&#45;application&#45;server&#45;&gt;pilot&#45;things</title>
<path fill="none" stroke="#000000" d="M789.7424,-141.8649C893.1277,-136.307 1034.1763,-124.6065 1085,-101 1100.7643,-93.6778 1115.0482,-80.6388 1125.8242,-68.776"/>
<polygon fill="#000000" stroke="#000000" points="1128.4685,-71.0689 1132.3793,-61.2222 1123.1816,-66.481 1128.4685,-71.0689"/>
</g>
<!-- chirpstack&#45;gateway&#45;bridge&#45;cloud -->
<g id="node4" class="node">
<title>chirpstack&#45;gateway&#45;bridge&#45;cloud</title>
<polygon fill="#e3f2fd" stroke="#e3f2fd" points="336,-313.5 336,-349.5 554,-349.5 554,-313.5 336,-313.5"/>
<text text-anchor="middle" x="445" y="-327.8" font-family="Times,serif" font-size="14.00" fill="#000000">ChirpStack Gateway Bridge</text>
</g>
<!-- chirpstack&#45;gateway&#45;bridge&#45;cloud&#45;&gt;pub&#45;sub -->
<g id="edge3" class="edge">
<title>chirpstack&#45;gateway&#45;bridge&#45;cloud&#45;&gt;pub&#45;sub</title>
<path fill="none" stroke="#000000" d="M445,-303.4163C445,-268.7228 445,-210.0186 445,-175.0924"/>
<polygon fill="#000000" stroke="#000000" points="441.5001,-303.4245 445,-313.4246 448.5001,-303.4246 441.5001,-303.4245"/>
<polygon fill="#000000" stroke="#000000" points="448.5001,-174.6488 445,-164.6488 441.5001,-174.6488 448.5001,-174.6488"/>
<text text-anchor="middle" x="468" y="-231.8" font-family="Times,serif" font-size="14.00" fill="#000000">MQTT</text>
</g>
<!-- chirpstack&#45;gateway&#45;bridge&#45;gw -->
<g id="node5" class="node">
<title>chirpstack&#45;gateway&#45;bridge&#45;gw</title>
<polygon fill="#e3f2fd" stroke="#e3f2fd" points="94,-216.5 94,-254.5 312,-254.5 312,-216.5 94,-216.5"/>
<text text-anchor="middle" x="203" y="-239.3" font-family="Times,serif" font-size="14.00" fill="#000000">Packet Forwarder +</text>
<text text-anchor="middle" x="203" y="-224.3" font-family="Times,serif" font-size="14.00" fill="#000000">ChirpStack Gateway Bridge</text>
</g>
<!-- chirpstack&#45;gateway&#45;bridge&#45;gw&#45;&gt;pub&#45;sub -->
<g id="edge4" class="edge">
<title>chirpstack&#45;gateway&#45;bridge&#45;gw&#45;&gt;pub&#45;sub</title>
<path fill="none" stroke="#000000" d="M264.4498,-212.9007C301.7741,-199.174 349.1688,-181.7437 386.0334,-168.1861"/>
<polygon fill="#000000" stroke="#000000" points="263.0924,-209.6706 254.9151,-216.4073 265.5086,-216.2404 263.0924,-209.6706"/>
<polygon fill="#000000" stroke="#000000" points="387.472,-171.3863 395.6493,-164.6496 385.0558,-164.8165 387.472,-171.3863"/>
<text text-anchor="middle" x="368" y="-186.8" font-family="Times,serif" font-size="14.00" fill="#000000">MQTT</text>
</g>
<!-- packet&#45;forwarder&#45;gw2 -->
<g id="node6" class="node">
<title>packet&#45;forwarder&#45;gw2</title>
<polygon fill="#e3f2fd" stroke="#e3f2fd" points="372.5,-422.5 372.5,-458.5 517.5,-458.5 517.5,-422.5 372.5,-422.5"/>
<text text-anchor="middle" x="445" y="-436.8" font-family="Times,serif" font-size="14.00" fill="#000000">Packet Forwarder</text>
</g>
<!-- packet&#45;forwarder&#45;gw2&#45;&gt;chirpstack&#45;gateway&#45;bridge&#45;cloud -->
<g id="edge5" class="edge">
<title>packet&#45;forwarder&#45;gw2&#45;&gt;chirpstack&#45;gateway&#45;bridge&#45;cloud</title>
<path fill="none" stroke="#000000" d="M445,-411.7765C445,-395.8022 445,-375.9892 445,-360.0438"/>
<polygon fill="#000000" stroke="#000000" points="441.5001,-412.0096 445,-422.0096 448.5001,-412.0097 441.5001,-412.0096"/>
<polygon fill="#000000" stroke="#000000" points="448.5001,-359.7173 445,-349.7173 441.5001,-359.7173 448.5001,-359.7173"/>
<text text-anchor="middle" x="462" y="-392.8" font-family="Times,serif" font-size="14.00" fill="#000000">UDP</text>
</g>
<!-- as&#45;api&#45;client -->
<g id="node18" class="node">
<title>as&#45;api&#45;client</title>
<polygon fill="#e3f2fd" stroke="#e3f2fd" points="1216,-16.5 1216,-69.5 1304,-69.5 1304,-16.5 1216,-16.5"/>
<text text-anchor="middle" x="1260" y="-54.3" font-family="Times,serif" font-size="14.00" fill="#000000">API client</text>
<text text-anchor="middle" x="1260" y="-39.3" font-family="Times,serif" font-size="14.00" fill="#000000">gRPC</text>
<text text-anchor="middle" x="1260" y="-24.3" font-family="Times,serif" font-size="14.00" fill="#000000">RESTful</text>
</g>
<!-- as&#45;api&#45;client&#45;&gt;chirpstack&#45;application&#45;server -->
<g id="edge17" class="edge">
<title>as&#45;api&#45;client&#45;&gt;chirpstack&#45;application&#45;server</title>
<path fill="none" stroke="#000000" d="M1242.5206,-69.7949C1233.4081,-81.4463 1221.1952,-94.0103 1207,-101 1171.3726,-118.5429 946.4683,-132.8603 799.5342,-140.4939"/>
<polygon fill="#000000" stroke="#000000" points="799.3391,-136.9992 789.5326,-141.0095 799.6995,-143.99 799.3391,-136.9992"/>
</g>
</g>
</svg>
